{
    "accessors" : [
        {
            "bufferView" : 0, 
            "componentType" : 5121, 
            "count" : 48, 
            "max" : [
                47
            ], 
            "min" : [
                0
            ], 
            "type" : "SCALAR"
        }, 
        {
            "bufferView" : 1, 
            "componentType" : 5126, 
            "count" : 48, 
            "max" : [
                0.4765625, 
                0.375, 
                0.828125
            ], 
            "min" : [
                -0.4765625, 
                0.1171875, 
                0.7734375
            ], 
            "type" : "VEC3"
        }, 
        {
            "bufferView" : 2, 
            "componentType" : 5126, 
            "count" : 48, 
            "max" : [
                0.40016335248947144, 
                0.17292186617851257, 
                0.9977155923843384
            ], 
            "min" : [
                -0.40016335248947144, 
                -0.18346361815929413, 
                0.9143751859664917
            ], 
            "type" : "VEC3"
        }, 
        {
            "bufferView" : 3, 
            "componentType" : 5123, 
            "count" : 2856, 
            "max" : [
                1917
            ], 
            "min" : [
                0
            ], 
            "type" : "SCALAR"
        }, 
        {
            "bufferView" : 4, 
            "componentType" : 5126, 
            "count" : 1918, 
            "max" : [
                1.3671875, 
                0.984375, 
                0.8515625
            ], 
            "min" : [
                -1.3671875, 
                -0.984375, 
                -0.8515625
            ], 
            "type" : "VEC3"
        }, 
        {
            "bufferView" : 5, 
            "componentType" : 5126, 
            "count" : 1918, 
            "max" : [
                1.0, 
                0.9970182180404663, 
                1.0
            ], 
            "min" : [
                -1.0, 
                -0.992402970790863, 
                -0.9864740371704102
            ], 
            "type" : "VEC3"
        }, 
        {
            "bufferView" : 6, 
            "componentType" : 5121, 
            "count" : 48, 
            "max" : [
                47
            ], 
            "min" : [
                0
            ], 
            "type" : "SCALAR"
        }, 
        {
            "bufferView" : 7, 
            "componentType" : 5126, 
            "count" : 48, 
            "max" : [
                0.4765625, 
                0.375, 
                0.828125
            ], 
            "min" : [
                -0.4765625, 
                0.1171875, 
                0.7734375
            ], 
            "type" : "VEC3"
        }, 
        {
            "bufferView" : 8, 
            "componentType" : 5126, 
            "count" : 48, 
            "max" : [
                0.40016335248947144, 
                0.17292186617851257, 
                0.9977155923843384
            ], 
            "min" : [
                -0.40016335248947144, 
                -0.18346361815929413, 
                0.9143751859664917
            ], 
            "type" : "VEC3"
        }, 
        {
            "bufferView" : 9, 
            "componentType" : 5123, 
            "count" : 2856, 
            "max" : [
                1917
            ], 
            "min" : [
                0
            ], 
            "type" : "SCALAR"
        }, 
        {
            "bufferView" : 10, 
            "componentType" : 5126, 
            "count" : 1918, 
            "max" : [
                1.3671875, 
                0.984375, 
                0.8515625
            ], 
            "min" : [
                -1.3671875, 
                -0.984375, 
                -0.8515625
            ], 
            "type" : "VEC3"
        }, 
        {
            "bufferView" : 11, 
            "componentType" : 5126, 
            "count" : 1918, 
            "max" : [
                1.0, 
                0.9970182180404663, 
                1.0
            ], 
            "min" : [
                -1.0, 
                -0.992402970790863, 
                -0.9864740371704102
            ], 
            "type" : "VEC3"
        }, 
        {
            "bufferView" : 12, 
            "componentType" : 5121, 
            "count" : 48, 
            "max" : [
                47
            ], 
            "min" : [
                0
            ], 
            "type" : "SCALAR"
        }, 
        {
            "bufferView" : 13, 
            "componentType" : 5126, 
            "count" : 48, 
            "max" : [
                0.4765625, 
                0.375, 
                0.828125
            ], 
            "min" : [
                -0.4765625, 
                0.1171875, 
                0.7734375
            ], 
            "type" : "VEC3"
        }, 
        {
            "bufferView" : 14, 
            "componentType" : 5126, 
            "count" : 48, 
            "max" : [
                0.40016335248947144, 
                0.17292186617851257, 
                0.9977155923843384
            ], 
            "min" : [
                -0.40016335248947144, 
                -0.18346361815929413, 
                0.9143751859664917
            ], 
            "type" : "VEC3"
        }, 
        {
            "bufferView" : 15, 
            "componentType" : 5123, 
            "count" : 2856, 
            "max" : [
                1917
            ], 
            "min" : [
                0
            ], 
            "type" : "SCALAR"
        }, 
        {
            "bufferView" : 16, 
            "componentType" : 5126, 
            "count" : 1918, 
            "max" : [
                1.3671875, 
                0.984375, 
                0.8515625
            ], 
            "min" : [
                -1.3671875, 
                -0.984375, 
                -0.8515625
            ], 
            "type" : "VEC3"
        }, 
        {
            "bufferView" : 17, 
            "componentType" : 5126, 
            "count" : 1918, 
            "max" : [
                1.0, 
                0.9970182180404663, 
                1.0
            ], 
            "min" : [
                -1.0, 
                -0.992402970790863, 
                -0.9864740371704102
            ], 
            "type" : "VEC3"
        }, 
        {
            "bufferView" : 18, 
            "componentType" : 5121, 
            "count" : 48, 
            "max" : [
                47
            ], 
            "min" : [
                0
            ], 
            "type" : "SCALAR"
        }, 
        {
            "bufferView" : 19, 
            "componentType" : 5126, 
            "count" : 48, 
            "max" : [
                0.4765625, 
                0.375, 
                0.828125
            ], 
            "min" : [
                -0.4765625, 
                0.1171875, 
                0.7734375
            ], 
            "type" : "VEC3"
        }, 
        {
            "bufferView" : 20, 
            "componentType" : 5126, 
            "count" : 48, 
            "max" : [
                0.40016335248947144, 
                0.17292186617851257, 
                0.9977155923843384
            ], 
            "min" : [
                -0.40016335248947144, 
                -0.18346361815929413, 
                0.9143751859664917
            ], 
            "type" : "VEC3"
        }, 
        {
            "bufferView" : 21, 
            "componentType" : 5123, 
            "count" : 2856, 
            "max" : [
                1917
            ], 
            "min" : [
                0
            ], 
            "type" : "SCALAR"
        }, 
        {
            "bufferView" : 22, 
            "componentType" : 5126, 
            "count" : 1918, 
            "max" : [
                1.3671875, 
                0.984375, 
                0.8515625
            ], 
            "min" : [
                -1.3671875, 
                -0.984375, 
                -0.8515625
            ], 
            "type" : "VEC3"
        }, 
        {
            "bufferView" : 23, 
            "componentType" : 5126, 
            "count" : 1918, 
            "max" : [
                1.0, 
                0.9970182180404663, 
                1.0
            ], 
            "min" : [
                -1.0, 
                -0.992402970790863, 
                -0.9864740371704102
            ], 
            "type" : "VEC3"
        }
    ], 
    "asset" : {
        "generator" : "Khronos Blender glTF 2.0 exporter", 
        "version" : "2.0"
    }, 
    "bufferViews" : [
        {
            "buffer" : 0, 
            "byteLength" : 48, 
            "byteOffset" : 0, 
            "target" : 34963
        }, 
        {
            "buffer" : 0, 
            "byteLength" : 576, 
            "byteOffset" : 48, 
            "target" : 34962
        }, 
        {
            "buffer" : 0, 
            "byteLength" : 576, 
            "byteOffset" : 624, 
            "target" : 34962
        }, 
        {
            "buffer" : 0, 
            "byteLength" : 5712, 
            "byteOffset" : 1200, 
            "target" : 34963
        }, 
        {
            "buffer" : 0, 
            "byteLength" : 23016, 
            "byteOffset" : 6912, 
            "target" : 34962
        }, 
        {
            "buffer" : 0, 
            "byteLength" : 23016, 
            "byteOffset" : 29928, 
            "target" : 34962
        }, 
        {
            "buffer" : 0, 
            "byteLength" : 48, 
            "byteOffset" : 52944, 
            "target" : 34963
        }, 
        {
            "buffer" : 0, 
            "byteLength" : 576, 
            "byteOffset" : 52992, 
            "target" : 34962
        }, 
        {
            "buffer" : 0, 
            "byteLength" : 576, 
            "byteOffset" : 53568, 
            "target" : 34962
        }, 
        {
            "buffer" : 0, 
            "byteLength" : 5712, 
            "byteOffset" : 54144, 
            "target" : 34963
        }, 
        {
            "buffer" : 0, 
            "byteLength" : 23016, 
            "byteOffset" : 59856, 
            "target" : 34962
        }, 
        {
            "buffer" : 0, 
            "byteLength" : 23016, 
            "byteOffset" : 82872, 
            "target" : 34962
        }, 
        {
            "buffer" : 0, 
            "byteLength" : 48, 
            "byteOffset" : 105888, 
            "target" : 34963
        }, 
        {
            "buffer" : 0, 
            "byteLength" : 576, 
            "byteOffset" : 105936, 
            "target" : 34962
        }, 
        {
            "buffer" : 0, 
            "byteLength" : 576, 
            "byteOffset" : 106512, 
            "target" : 34962
        }, 
        {
            "buffer" : 0, 
            "byteLength" : 5712, 
            "byteOffset" : 107088, 
            "target" : 34963
        }, 
        {
            "buffer" : 0, 
            "byteLength" : 23016, 
            "byteOffset" : 112800, 
            "target" : 34962
        }, 
        {
            "buffer" : 0, 
            "byteLength" : 23016, 
            "byteOffset" : 135816, 
            "target" : 34962
        }, 
        {
            "buffer" : 0, 
            "byteLength" : 48, 
            "byteOffset" : 158832, 
            "target" : 34963
        }, 
        {
            "buffer" : 0, 
            "byteLength" : 576, 
            "byteOffset" : 158880, 
            "target" : 34962
        }, 
        {
            "buffer" : 0, 
            "byteLength" : 576, 
            "byteOffset" : 159456, 
            "target" : 34962
        }, 
        {
            "buffer" : 0, 
            "byteLength" : 5712, 
            "byteOffset" : 160032, 
            "target" : 34963
        }, 
        {
            "buffer" : 0, 
            "byteLength" : 23016, 
            "byteOffset" : 165744, 
            "target" : 34962
        }, 
        {
            "buffer" : 0, 
            "byteLength" : 23016, 
            "byteOffset" : 188760, 
            "target" : 34962
        }
    ], 
    "buffers" : [
        {
            "byteLength" : 211776, 
            "uri" : "hoge.bin"
        }
    ], 
    "materials" : [
        {
            "name" : "Material.001", 
            "pbrMetallicRoughness" : {
                "baseColorFactor" : [
                    0.018920462115413872, 
                    0.013984079867364163, 
                    0.0023190759467940913, 
                    1.0
                ], 
                "metallicFactor" : 0.0
            }
        }, 
        {
            "name" : "Material.002", 
            "pbrMetallicRoughness" : {
                "baseColorFactor" : [
                    0.0, 
                    0.640000066757203, 
                    0.0263706270809565, 
                    1.0
                ], 
                "metallicFactor" : 0.0
            }
        }
    ], 
    "meshes" : [
        {
            "name" : "Suzanne", 
            "primitives" : [
                {
                    "attributes" : {
                        "NORMAL" : 2, 
                        "POSITION" : 1
                    }, 
                    "indices" : 0, 
                    "material" : 1
                }, 
                {
                    "attributes" : {
                        "NORMAL" : 5, 
                        "POSITION" : 4
                    }, 
                    "indices" : 3, 
                    "material" : 0
                }
            ]
        }, 
        {
            "name" : "Suzanne.002", 
            "primitives" : [
                {
                    "attributes" : {
                        "NORMAL" : 8, 
                        "POSITION" : 7
                    }, 
                    "indices" : 6, 
                    "material" : 1
                }, 
                {
                    "attributes" : {
                        "NORMAL" : 11, 
                        "POSITION" : 10
                    }, 
                    "indices" : 9, 
                    "material" : 0
                }
            ]
        }, 
        {
            "name" : "Suzanne.001", 
            "primitives" : [
                {
                    "attributes" : {
                        "NORMAL" : 14, 
                        "POSITION" : 13
                    }, 
                    "indices" : 12, 
                    "material" : 1
                }, 
                {
                    "attributes" : {
                        "NORMAL" : 17, 
                        "POSITION" : 16
                    }, 
                    "indices" : 15, 
                    "material" : 0
                }
            ]
        }, 
        {
            "name" : "Suzanne.003", 
            "primitives" : [
                {
                    "attributes" : {
                        "NORMAL" : 20, 
                        "POSITION" : 19
                    }, 
                    "indices" : 18, 
                    "material" : 1
                }, 
                {
                    "attributes" : {
                        "NORMAL" : 23, 
                        "POSITION" : 22
                    }, 
                    "indices" : 21, 
                    "material" : 0
                }
            ]
        }
    ], 
    "nodes" : [
        {
            "name" : "Camera", 
            "rotation" : [
                0.483536034822464, 
                0.33687159419059753, 
                -0.20870360732078552, 
                0.7804827094078064
            ], 
            "translation" : [
                7.481131553649902, 
                5.34366512298584, 
                6.5076398849487305
            ]
        }, 
        {
            "name" : "Lamp", 
            "rotation" : [
                0.16907575726509094, 
                0.7558802962303162, 
                -0.27217137813568115, 
                0.570947527885437
            ], 
            "scale" : [
                1.0, 
                1.0, 
                0.9999999403953552
            ], 
            "translation" : [
                4.076245307922363, 
                5.903861999511719, 
                -1.0054539442062378
            ]
        }, 
        {
            "mesh" : 0, 
            "name" : "Suzanne", 
            "scale" : [
                0.7729784250259399, 
                0.7729784250259399, 
                0.7729784250259399
            ]
        }, 
        {
            "mesh" : 0, 
            "name" : "Suzanne.001", 
            "rotation" : [
                -0.026226961985230446, 
                -0.0571371428668499, 
                -0.234012633562088, 
                0.9701987504959106
            ], 
            "scale" : [
                0.3849581182003021, 
                0.3849581182003021, 
                0.3849581182003021
            ], 
            "translation" : [
                -1.2953455448150635, 
                0.8163602352142334, 
                0.16197927296161652
            ]
        }, 
        {
            "mesh" : 2, 
            "name" : "Suzanne.002", 
            "rotation" : [
                -0.06372582167387009, 
                0.2297874093055725, 
                0.13005228340625763, 
                0.9624049067497253
            ], 
            "scale" : [
                0.3849581182003021, 
                0.3849581182003021, 
                0.3849581182003021
            ], 
            "translation" : [
                0.9943587779998779, 
                1.006422758102417, 
                -0.0681677907705307
            ]
        }, 
        {
            "mesh" : 1, 
            "name" : "Suzanne.003", 
            "rotation" : [
                0.054236091673374176, 
                0.22487273812294006, 
                0.2618204355239868, 
                0.9369849562644958
            ], 
            "scale" : [
                0.2572462558746338, 
                0.2572462558746338, 
                0.2572462260723114
            ], 
            "translation" : [
                0.44993290305137634, 
                1.8856523036956787, 
                -0.6116487979888916
            ]
        }, 
        {
            "mesh" : 3, 
            "name" : "Suzanne.004", 
            "rotation" : [
                0.11284937709569931, 
                -0.0014025376876816154, 
                -0.13753539323806763, 
                0.9840463995933533
            ], 
            "scale" : [
                0.2572462558746338, 
                0.2572462558746338, 
                0.2572462260723114
            ], 
            "translation" : [
                -1.0086016654968262, 
                1.4020893573760986, 
                -0.47100335359573364
            ]
        }
    ], 
    "scene" : 0, 
    "scenes" : [
        {
            "name" : "Scene", 
            "nodes" : [
                6, 
                5, 
                4, 
                3, 
                2, 
                1, 
                0
            ]
        }
    ]
}
